# xmcd
#
# Track frame offsets: 
#        150
#        13268
#        26762
#        41758
#        55314
#        70962
#        87268
#        100087
#        114312
#        126858
#        147047
#        156970
#
# Disc length: 2257 seconds
#
# Revision: 0
# Processed by: cddbd v1.4PL0 Copyright (c) Steve Scherf et al.
# Submitted via: ExactAudioCopy v0.90b4
#
DISCID=a208cf0c
DTITLE=Lee Kernaghan - The Christmas Album
DYEAR=1998
DGENRE=Country
TTITLE0=Santa Claus Is Back In Town
TTITLE1=It Must Be Christmas
TTITLE2=Mary's Boy Child
TTITLE3=Merry Merry Christmas
TTITLE4=Christmas Waltz
TTITLE5=Have Yourself A Merry Little Christmas
TTITLE6=Blue Christmas
TTITLE7=It Still Feels Like Christmas To Me
TTITLE8=O' Little Town Of Bethlehem
TTITLE9=Silent Night
TTITLE10=We Wish You Merry Christmas
TTITLE11=Away In A Manger
EXTD=
EXTT0=
EXTT1=
EXTT2=
EXTT3=
EXTT4=
EXTT5=
EXTT6=
EXTT7=
EXTT8=
EXTT9=
EXTT10=
EXTT11=
PLAYORDER=
